<mxfile host="app.diagrams.net" modified="2023-03-28T06:17:26.516Z" agent="Mozilla/5.0 (Windows NT 10.0; Win64; x64) AppleWebKit/537.36 (KHTML, like Gecko) Chrome/111.0.0.0 Safari/537.36" etag="RMamcTRgPx2dX7kp4m1d" version="21.1.1" type="device">
  <diagram name="Page-1" id="XxEguyGnV1F80WatW4vG">
    <mxGraphModel dx="844" dy="449" grid="1" gridSize="10" guides="1" tooltips="1" connect="1" arrows="1" fold="1" page="1" pageScale="1" pageWidth="850" pageHeight="1100" math="0" shadow="0">
      <root>
        <mxCell id="0" />
        <mxCell id="1" parent="0" />
        <mxCell id="4qSaV3ks-t9sXUHuaoWZ-3" value="" style="shape=table;startSize=0;container=1;collapsible=0;childLayout=tableLayout;fontSize=16;fillOpacity=100;fillColor=none;" parent="1" vertex="1">
          <mxGeometry x="200" y="260" width="60" height="135" as="geometry" />
        </mxCell>
        <mxCell id="4qSaV3ks-t9sXUHuaoWZ-4" value="" style="shape=tableRow;horizontal=0;startSize=0;swimlaneHead=0;swimlaneBody=0;strokeColor=inherit;top=0;left=0;bottom=0;right=0;collapsible=0;dropTarget=0;fillColor=none;points=[[0,0.5],[1,0.5]];portConstraint=eastwest;fontSize=16;fillOpacity=100;" parent="4qSaV3ks-t9sXUHuaoWZ-3" vertex="1">
          <mxGeometry width="60" height="23" as="geometry" />
        </mxCell>
        <mxCell id="4qSaV3ks-t9sXUHuaoWZ-5" value="" style="shape=partialRectangle;html=1;whiteSpace=wrap;connectable=0;strokeColor=inherit;overflow=hidden;fillColor=none;top=0;left=0;bottom=0;right=0;pointerEvents=1;fontSize=16;fillOpacity=100;" parent="4qSaV3ks-t9sXUHuaoWZ-4" vertex="1">
          <mxGeometry width="60" height="23" as="geometry">
            <mxRectangle width="60" height="23" as="alternateBounds" />
          </mxGeometry>
        </mxCell>
        <mxCell id="4qSaV3ks-t9sXUHuaoWZ-8" value="" style="shape=tableRow;horizontal=0;startSize=0;swimlaneHead=0;swimlaneBody=0;strokeColor=inherit;top=0;left=0;bottom=0;right=0;collapsible=0;dropTarget=0;fillColor=none;points=[[0,0.5],[1,0.5]];portConstraint=eastwest;fontSize=16;fillOpacity=100;" parent="4qSaV3ks-t9sXUHuaoWZ-3" vertex="1">
          <mxGeometry y="23" width="60" height="22" as="geometry" />
        </mxCell>
        <mxCell id="4qSaV3ks-t9sXUHuaoWZ-9" value="" style="shape=partialRectangle;html=1;whiteSpace=wrap;connectable=0;strokeColor=inherit;overflow=hidden;fillColor=none;top=0;left=0;bottom=0;right=0;pointerEvents=1;fontSize=16;fillOpacity=100;" parent="4qSaV3ks-t9sXUHuaoWZ-8" vertex="1">
          <mxGeometry width="60" height="22" as="geometry">
            <mxRectangle width="60" height="22" as="alternateBounds" />
          </mxGeometry>
        </mxCell>
        <mxCell id="4qSaV3ks-t9sXUHuaoWZ-21" value="" style="shape=tableRow;horizontal=0;startSize=0;swimlaneHead=0;swimlaneBody=0;strokeColor=inherit;top=0;left=0;bottom=0;right=0;collapsible=0;dropTarget=0;fillColor=none;points=[[0,0.5],[1,0.5]];portConstraint=eastwest;fontSize=16;fillOpacity=100;" parent="4qSaV3ks-t9sXUHuaoWZ-3" vertex="1">
          <mxGeometry y="45" width="60" height="44" as="geometry" />
        </mxCell>
        <mxCell id="4qSaV3ks-t9sXUHuaoWZ-22" value="" style="shape=partialRectangle;html=1;whiteSpace=wrap;connectable=0;strokeColor=inherit;overflow=hidden;fillColor=none;top=0;left=0;bottom=0;right=0;pointerEvents=1;fontSize=16;fillOpacity=100;" parent="4qSaV3ks-t9sXUHuaoWZ-21" vertex="1">
          <mxGeometry width="60" height="44" as="geometry">
            <mxRectangle width="60" height="44" as="alternateBounds" />
          </mxGeometry>
        </mxCell>
        <mxCell id="4qSaV3ks-t9sXUHuaoWZ-12" value="" style="shape=tableRow;horizontal=0;startSize=0;swimlaneHead=0;swimlaneBody=0;strokeColor=inherit;top=0;left=0;bottom=0;right=0;collapsible=0;dropTarget=0;fillColor=none;points=[[0,0.5],[1,0.5]];portConstraint=eastwest;fontSize=16;fillOpacity=100;" parent="4qSaV3ks-t9sXUHuaoWZ-3" vertex="1">
          <mxGeometry y="89" width="60" height="23" as="geometry" />
        </mxCell>
        <mxCell id="4qSaV3ks-t9sXUHuaoWZ-13" value="" style="shape=partialRectangle;html=1;whiteSpace=wrap;connectable=0;strokeColor=inherit;overflow=hidden;fillColor=none;top=0;left=0;bottom=0;right=0;pointerEvents=1;fontSize=16;fillOpacity=100;" parent="4qSaV3ks-t9sXUHuaoWZ-12" vertex="1">
          <mxGeometry width="60" height="23" as="geometry">
            <mxRectangle width="60" height="23" as="alternateBounds" />
          </mxGeometry>
        </mxCell>
        <mxCell id="4qSaV3ks-t9sXUHuaoWZ-44" style="shape=tableRow;horizontal=0;startSize=0;swimlaneHead=0;swimlaneBody=0;strokeColor=inherit;top=0;left=0;bottom=0;right=0;collapsible=0;dropTarget=0;fillColor=none;points=[[0,0.5],[1,0.5]];portConstraint=eastwest;fontSize=16;fillOpacity=100;" parent="4qSaV3ks-t9sXUHuaoWZ-3" vertex="1">
          <mxGeometry y="112" width="60" height="23" as="geometry" />
        </mxCell>
        <mxCell id="4qSaV3ks-t9sXUHuaoWZ-45" style="shape=partialRectangle;html=1;whiteSpace=wrap;connectable=0;strokeColor=inherit;overflow=hidden;fillColor=none;top=0;left=0;bottom=0;right=0;pointerEvents=1;fontSize=16;fillOpacity=100;" parent="4qSaV3ks-t9sXUHuaoWZ-44" vertex="1">
          <mxGeometry width="60" height="23" as="geometry">
            <mxRectangle width="60" height="23" as="alternateBounds" />
          </mxGeometry>
        </mxCell>
        <mxCell id="4qSaV3ks-t9sXUHuaoWZ-43" style="edgeStyle=orthogonalEdgeStyle;rounded=0;orthogonalLoop=1;jettySize=auto;html=1;exitX=1;exitY=0.5;exitDx=0;exitDy=0;fillOpacity=100;" parent="4qSaV3ks-t9sXUHuaoWZ-3" source="4qSaV3ks-t9sXUHuaoWZ-4" target="4qSaV3ks-t9sXUHuaoWZ-4" edge="1">
          <mxGeometry relative="1" as="geometry" />
        </mxCell>
        <mxCell id="4qSaV3ks-t9sXUHuaoWZ-48" value="" style="endArrow=none;dashed=1;html=1;dashPattern=1 3;strokeWidth=2;rounded=0;fillOpacity=100;" parent="1" edge="1">
          <mxGeometry width="50" height="50" relative="1" as="geometry">
            <mxPoint x="230" y="337.5" as="sourcePoint" />
            <mxPoint x="230" y="317.5" as="targetPoint" />
          </mxGeometry>
        </mxCell>
        <mxCell id="4qSaV3ks-t9sXUHuaoWZ-49" value="BHT" style="text;strokeColor=none;align=center;fillColor=none;html=1;verticalAlign=middle;whiteSpace=wrap;rounded=0;" parent="1" vertex="1">
          <mxGeometry x="200" y="395" width="60" height="30" as="geometry" />
        </mxCell>
        <mxCell id="4qSaV3ks-t9sXUHuaoWZ-80" style="edgeStyle=orthogonalEdgeStyle;rounded=0;orthogonalLoop=1;jettySize=auto;html=1;entryX=0.518;entryY=-0.05;entryDx=0;entryDy=0;entryPerimeter=0;fontSize=12;exitX=0.146;exitY=0.546;exitDx=0;exitDy=0;exitPerimeter=0;" parent="1" source="4qSaV3ks-t9sXUHuaoWZ-50" target="4qSaV3ks-t9sXUHuaoWZ-70" edge="1">
          <mxGeometry relative="1" as="geometry">
            <Array as="points">
              <mxPoint x="111" y="179" />
            </Array>
          </mxGeometry>
        </mxCell>
        <mxCell id="4qSaV3ks-t9sXUHuaoWZ-50" value="" style="ellipse;shape=cloud;whiteSpace=wrap;html=1;fillColor=none;" parent="1" vertex="1">
          <mxGeometry x="185" y="130" width="90" height="90" as="geometry" />
        </mxCell>
        <mxCell id="4qSaV3ks-t9sXUHuaoWZ-81" style="edgeStyle=orthogonalEdgeStyle;rounded=0;orthogonalLoop=1;jettySize=auto;html=1;entryX=0.5;entryY=-0.08;entryDx=0;entryDy=0;entryPerimeter=0;fontSize=12;exitX=0.932;exitY=0.556;exitDx=0;exitDy=0;exitPerimeter=0;" parent="1" source="4qSaV3ks-t9sXUHuaoWZ-50" target="4qSaV3ks-t9sXUHuaoWZ-54" edge="1">
          <mxGeometry relative="1" as="geometry">
            <mxPoint x="280" y="180" as="sourcePoint" />
            <Array as="points">
              <mxPoint x="350" y="180" />
            </Array>
          </mxGeometry>
        </mxCell>
        <mxCell id="4qSaV3ks-t9sXUHuaoWZ-51" value="Gshare&lt;br&gt;or&lt;br&gt;Gselect" style="text;strokeColor=none;align=center;fillColor=none;html=1;verticalAlign=middle;whiteSpace=wrap;rounded=0;" parent="1" vertex="1">
          <mxGeometry x="200" y="160" width="60" height="30" as="geometry" />
        </mxCell>
        <mxCell id="4qSaV3ks-t9sXUHuaoWZ-53" value="" style="shape=table;startSize=0;container=1;collapsible=0;childLayout=tableLayout;fontSize=16;fillColor=none;" parent="1" vertex="1">
          <mxGeometry x="310" y="302" width="80" height="50" as="geometry" />
        </mxCell>
        <mxCell id="4qSaV3ks-t9sXUHuaoWZ-54" value="" style="shape=tableRow;horizontal=0;startSize=0;swimlaneHead=0;swimlaneBody=0;strokeColor=inherit;top=0;left=0;bottom=0;right=0;collapsible=0;dropTarget=0;fillColor=none;points=[[0,0.5],[1,0.5]];portConstraint=eastwest;fontSize=16;" parent="4qSaV3ks-t9sXUHuaoWZ-53" vertex="1">
          <mxGeometry width="80" height="25" as="geometry" />
        </mxCell>
        <mxCell id="4qSaV3ks-t9sXUHuaoWZ-55" value="&lt;font style=&quot;font-size: 12px;&quot;&gt;Predict index&lt;/font&gt;" style="shape=partialRectangle;html=1;whiteSpace=wrap;connectable=0;strokeColor=inherit;overflow=hidden;fillColor=none;top=0;left=0;bottom=0;right=0;pointerEvents=1;fontSize=16;" parent="4qSaV3ks-t9sXUHuaoWZ-54" vertex="1">
          <mxGeometry width="80" height="25" as="geometry">
            <mxRectangle width="80" height="25" as="alternateBounds" />
          </mxGeometry>
        </mxCell>
        <mxCell id="4qSaV3ks-t9sXUHuaoWZ-58" value="" style="shape=tableRow;horizontal=0;startSize=0;swimlaneHead=0;swimlaneBody=0;strokeColor=inherit;top=0;left=0;bottom=0;right=0;collapsible=0;dropTarget=0;fillColor=none;points=[[0,0.5],[1,0.5]];portConstraint=eastwest;fontSize=16;" parent="4qSaV3ks-t9sXUHuaoWZ-53" vertex="1">
          <mxGeometry y="25" width="80" height="25" as="geometry" />
        </mxCell>
        <mxCell id="4qSaV3ks-t9sXUHuaoWZ-59" value="&lt;font style=&quot;font-size: 12px;&quot;&gt;Prediction&lt;/font&gt;" style="shape=partialRectangle;html=1;whiteSpace=wrap;connectable=0;strokeColor=inherit;overflow=hidden;fillColor=none;top=0;left=0;bottom=0;right=0;pointerEvents=1;fontSize=16;" parent="4qSaV3ks-t9sXUHuaoWZ-58" vertex="1">
          <mxGeometry width="80" height="25" as="geometry">
            <mxRectangle width="80" height="25" as="alternateBounds" />
          </mxGeometry>
        </mxCell>
        <mxCell id="4qSaV3ks-t9sXUHuaoWZ-69" value="" style="shape=table;startSize=0;container=1;collapsible=0;childLayout=tableLayout;fontSize=16;fillColor=none;" parent="1" vertex="1">
          <mxGeometry x="70" y="302.5" width="80" height="50" as="geometry" />
        </mxCell>
        <mxCell id="4qSaV3ks-t9sXUHuaoWZ-70" value="" style="shape=tableRow;horizontal=0;startSize=0;swimlaneHead=0;swimlaneBody=0;strokeColor=inherit;top=0;left=0;bottom=0;right=0;collapsible=0;dropTarget=0;fillColor=none;points=[[0,0.5],[1,0.5]];portConstraint=eastwest;fontSize=16;" parent="4qSaV3ks-t9sXUHuaoWZ-69" vertex="1">
          <mxGeometry width="80" height="25" as="geometry" />
        </mxCell>
        <mxCell id="4qSaV3ks-t9sXUHuaoWZ-71" value="&lt;font style=&quot;font-size: 12px;&quot;&gt;Update index&lt;/font&gt;" style="shape=partialRectangle;html=1;whiteSpace=wrap;connectable=0;strokeColor=inherit;overflow=hidden;fillColor=none;top=0;left=0;bottom=0;right=0;pointerEvents=1;fontSize=16;" parent="4qSaV3ks-t9sXUHuaoWZ-70" vertex="1">
          <mxGeometry width="80" height="25" as="geometry">
            <mxRectangle width="80" height="25" as="alternateBounds" />
          </mxGeometry>
        </mxCell>
        <mxCell id="4qSaV3ks-t9sXUHuaoWZ-72" value="" style="shape=tableRow;horizontal=0;startSize=0;swimlaneHead=0;swimlaneBody=0;strokeColor=inherit;top=0;left=0;bottom=0;right=0;collapsible=0;dropTarget=0;fillColor=none;points=[[0,0.5],[1,0.5]];portConstraint=eastwest;fontSize=16;" parent="4qSaV3ks-t9sXUHuaoWZ-69" vertex="1">
          <mxGeometry y="25" width="80" height="25" as="geometry" />
        </mxCell>
        <mxCell id="4qSaV3ks-t9sXUHuaoWZ-73" value="&lt;font style=&quot;font-size: 12px;&quot;&gt;Resolution&lt;/font&gt;" style="shape=partialRectangle;html=1;whiteSpace=wrap;connectable=0;strokeColor=inherit;overflow=hidden;fillColor=none;top=0;left=0;bottom=0;right=0;pointerEvents=1;fontSize=16;" parent="4qSaV3ks-t9sXUHuaoWZ-72" vertex="1">
          <mxGeometry width="80" height="25" as="geometry">
            <mxRectangle width="80" height="25" as="alternateBounds" />
          </mxGeometry>
        </mxCell>
        <mxCell id="4qSaV3ks-t9sXUHuaoWZ-74" style="edgeStyle=orthogonalEdgeStyle;rounded=0;orthogonalLoop=1;jettySize=auto;html=1;entryX=0;entryY=0.227;entryDx=0;entryDy=0;entryPerimeter=0;fontSize=12;" parent="1" source="4qSaV3ks-t9sXUHuaoWZ-70" target="4qSaV3ks-t9sXUHuaoWZ-21" edge="1">
          <mxGeometry relative="1" as="geometry" />
        </mxCell>
        <mxCell id="4qSaV3ks-t9sXUHuaoWZ-75" style="edgeStyle=orthogonalEdgeStyle;rounded=0;orthogonalLoop=1;jettySize=auto;html=1;fontSize=12;entryX=0;entryY=0.795;entryDx=0;entryDy=0;entryPerimeter=0;" parent="1" source="4qSaV3ks-t9sXUHuaoWZ-72" target="4qSaV3ks-t9sXUHuaoWZ-21" edge="1">
          <mxGeometry relative="1" as="geometry">
            <mxPoint x="190" y="340" as="targetPoint" />
          </mxGeometry>
        </mxCell>
        <mxCell id="4qSaV3ks-t9sXUHuaoWZ-77" style="edgeStyle=orthogonalEdgeStyle;rounded=0;orthogonalLoop=1;jettySize=auto;html=1;fontSize=12;exitX=1.003;exitY=0.768;exitDx=0;exitDy=0;exitPerimeter=0;" parent="1" source="4qSaV3ks-t9sXUHuaoWZ-21" target="4qSaV3ks-t9sXUHuaoWZ-58" edge="1">
          <mxGeometry relative="1" as="geometry" />
        </mxCell>
        <mxCell id="4qSaV3ks-t9sXUHuaoWZ-79" style="edgeStyle=orthogonalEdgeStyle;rounded=0;orthogonalLoop=1;jettySize=auto;html=1;entryX=1;entryY=0.216;entryDx=0;entryDy=0;entryPerimeter=0;fontSize=12;" parent="1" source="4qSaV3ks-t9sXUHuaoWZ-54" target="4qSaV3ks-t9sXUHuaoWZ-21" edge="1">
          <mxGeometry relative="1" as="geometry" />
        </mxCell>
        <mxCell id="4qSaV3ks-t9sXUHuaoWZ-82" style="edgeStyle=orthogonalEdgeStyle;rounded=0;orthogonalLoop=1;jettySize=auto;html=1;fontSize=12;" parent="1" target="4qSaV3ks-t9sXUHuaoWZ-72" edge="1">
          <mxGeometry relative="1" as="geometry">
            <mxPoint x="10" y="340" as="sourcePoint" />
          </mxGeometry>
        </mxCell>
        <mxCell id="4qSaV3ks-t9sXUHuaoWZ-83" style="edgeStyle=orthogonalEdgeStyle;rounded=0;orthogonalLoop=1;jettySize=auto;html=1;fontSize=12;" parent="1" source="4qSaV3ks-t9sXUHuaoWZ-58" edge="1">
          <mxGeometry relative="1" as="geometry">
            <mxPoint x="450" y="339.5" as="targetPoint" />
          </mxGeometry>
        </mxCell>
        <mxCell id="4qSaV3ks-t9sXUHuaoWZ-111" style="edgeStyle=orthogonalEdgeStyle;rounded=0;orthogonalLoop=1;jettySize=auto;html=1;entryX=0.504;entryY=0.102;entryDx=0;entryDy=0;entryPerimeter=0;fontSize=12;" parent="1" source="4qSaV3ks-t9sXUHuaoWZ-97" target="4qSaV3ks-t9sXUHuaoWZ-50" edge="1">
          <mxGeometry relative="1" as="geometry" />
        </mxCell>
        <mxCell id="4qSaV3ks-t9sXUHuaoWZ-114" style="edgeStyle=orthogonalEdgeStyle;rounded=0;orthogonalLoop=1;jettySize=auto;html=1;fontSize=12;" parent="1" target="4qSaV3ks-t9sXUHuaoWZ-97" edge="1">
          <mxGeometry relative="1" as="geometry">
            <mxPoint x="150" y="10" as="sourcePoint" />
            <Array as="points">
              <mxPoint x="150" y="10" />
            </Array>
          </mxGeometry>
        </mxCell>
        <mxCell id="4qSaV3ks-t9sXUHuaoWZ-115" style="edgeStyle=orthogonalEdgeStyle;rounded=0;orthogonalLoop=1;jettySize=auto;html=1;fontSize=12;" parent="1" target="4qSaV3ks-t9sXUHuaoWZ-97" edge="1">
          <mxGeometry relative="1" as="geometry">
            <mxPoint x="310" y="10" as="sourcePoint" />
            <Array as="points">
              <mxPoint x="310" y="10" />
            </Array>
          </mxGeometry>
        </mxCell>
        <mxCell id="4qSaV3ks-t9sXUHuaoWZ-97" value="" style="shape=table;startSize=0;container=1;collapsible=0;childLayout=tableLayout;fontSize=16;fillColor=none;" parent="1" vertex="1">
          <mxGeometry x="110" y="70" width="240" height="26" as="geometry" />
        </mxCell>
        <mxCell id="4qSaV3ks-t9sXUHuaoWZ-102" value="" style="shape=tableRow;horizontal=0;startSize=0;swimlaneHead=0;swimlaneBody=0;strokeColor=inherit;top=0;left=0;bottom=0;right=0;collapsible=0;dropTarget=0;fillColor=none;points=[[0,0.5],[1,0.5]];portConstraint=eastwest;fontSize=16;" parent="4qSaV3ks-t9sXUHuaoWZ-97" vertex="1">
          <mxGeometry width="240" height="26" as="geometry" />
        </mxCell>
        <mxCell id="4qSaV3ks-t9sXUHuaoWZ-103" value="&lt;font style=&quot;font-size: 12px;&quot;&gt;Update PC&lt;/font&gt;" style="shape=partialRectangle;html=1;whiteSpace=wrap;connectable=0;strokeColor=inherit;overflow=hidden;fillColor=none;top=0;left=0;bottom=0;right=0;pointerEvents=1;fontSize=16;" parent="4qSaV3ks-t9sXUHuaoWZ-102" vertex="1">
          <mxGeometry width="80" height="26" as="geometry">
            <mxRectangle width="80" height="26" as="alternateBounds" />
          </mxGeometry>
        </mxCell>
        <mxCell id="4qSaV3ks-t9sXUHuaoWZ-104" value="&lt;span style=&quot;font-size: 12px;&quot;&gt;GHR&lt;/span&gt;" style="shape=partialRectangle;html=1;whiteSpace=wrap;connectable=0;strokeColor=inherit;overflow=hidden;fillColor=none;top=0;left=0;bottom=0;right=0;pointerEvents=1;fontSize=16;" parent="4qSaV3ks-t9sXUHuaoWZ-102" vertex="1">
          <mxGeometry x="80" width="80" height="26" as="geometry">
            <mxRectangle width="80" height="26" as="alternateBounds" />
          </mxGeometry>
        </mxCell>
        <mxCell id="4qSaV3ks-t9sXUHuaoWZ-105" value="&lt;font style=&quot;font-size: 12px;&quot;&gt;Predict PC&lt;/font&gt;" style="shape=partialRectangle;html=1;whiteSpace=wrap;connectable=0;strokeColor=inherit;overflow=hidden;fillColor=none;top=0;left=0;bottom=0;right=0;pointerEvents=1;fontSize=16;" parent="4qSaV3ks-t9sXUHuaoWZ-102" vertex="1">
          <mxGeometry x="160" width="80" height="26" as="geometry">
            <mxRectangle width="80" height="26" as="alternateBounds" />
          </mxGeometry>
        </mxCell>
        <mxCell id="4qSaV3ks-t9sXUHuaoWZ-110" style="edgeStyle=orthogonalEdgeStyle;rounded=0;orthogonalLoop=1;jettySize=auto;html=1;fontSize=12;" parent="1" source="4qSaV3ks-t9sXUHuaoWZ-102" edge="1">
          <mxGeometry relative="1" as="geometry">
            <mxPoint x="191" y="160" as="targetPoint" />
            <Array as="points">
              <mxPoint x="150" y="160" />
              <mxPoint x="191" y="160" />
            </Array>
          </mxGeometry>
        </mxCell>
        <mxCell id="4qSaV3ks-t9sXUHuaoWZ-112" style="edgeStyle=orthogonalEdgeStyle;rounded=0;orthogonalLoop=1;jettySize=auto;html=1;entryX=0.936;entryY=0.339;entryDx=0;entryDy=0;entryPerimeter=0;fontSize=12;" parent="1" source="4qSaV3ks-t9sXUHuaoWZ-102" target="4qSaV3ks-t9sXUHuaoWZ-50" edge="1">
          <mxGeometry relative="1" as="geometry">
            <Array as="points">
              <mxPoint x="310" y="160" />
              <mxPoint x="269" y="160" />
            </Array>
          </mxGeometry>
        </mxCell>
      </root>
    </mxGraphModel>
  </diagram>
</mxfile>
